# xmcd
#
# Track frame offsets: 
#        150
#        10942
#        20255
#        30425
#        41405
#        52092
#        61660
#        76310
#        87545
#        101462
#        111987
#        123220
#        133417
#        145285
#        159747
#        171642
#        182307
#        195290
#        209555
#        220810
#        241304
#        254979
#        268954
#        278414
#        292496
#        307619
#        320274
#
# Disc length: 4400 seconds
#
# Revision: 1
# Processed by: cddbd v1.5.2PL0 Copyright (c) Steve Scherf et al.
# Submitted via: ExactAudioCopy v0.99pb4
#
DISCID=8d112e1b
DTITLE=Chet Atkins - Landy Star Series
DYEAR=1900
DGENRE=Country
TTITLE0=Mr. Sandman
TTITLE1=The Poor People Of Paris
TTITLE2=Boo Boo Stick Beat
TTITLE3=Alley Cat
TTITLE4=Travelin'
TTITLE5=Yakety Axe
TTITLE6=Yesterday
TTITLE7=Blue Angel
TTITLE8=Theme From "Zorba The Greek"
TTITLE9=Snowbird
TTITLE10=Steeplechase Lane
TTITLE11=Jerry's Breakdown
TTITLE12=Black Mountain Rag
TTITLE13=Fiddlin' Around
TTITLE14=Somewhere My Love
TTITLE15=The Entertainer
TTITLE16=Londonderry Air
TTITLE17=On My Way To Canaan's Land
TTITLE18=Tennessee Rag/Beaumont Rag
TTITLE19=Chet's Medley
TTITLE20=Unchained Melody
TTITLE21=Light My Fire
TTITLE22=It's Now Or Never
TTITLE23=Song Sung Blue
TTITLE24=Hey Jude
TTITLE25=Michelle
TTITLE26=I'll Follow The Sun
EXTD=
EXTT0=
EXTT1=
EXTT2=
EXTT3=
EXTT4=
EXTT5=
EXTT6=
EXTT7=
EXTT8=
EXTT9=
EXTT10=
EXTT11=
EXTT12=
EXTT13=
EXTT14=
EXTT15=
EXTT16=
EXTT17=
EXTT18=
EXTT19=
EXTT20=
EXTT21=
EXTT22=
EXTT23=
EXTT24=
EXTT25=
EXTT26=
PLAYORDER=
